<svg id="Capa_1" enable-background="new 0 0 512 512" height="512" viewBox="0 0 512 512" width="512" xmlns="http://www.w3.org/2000/svg"><g><path d="m450.517 131.342c.322-3.501.483-6.929.483-10.342 0-66.167-53.833-121-120-121-44.473 0-85.342 25.283-105.894 64.219-9.521-2.798-19.248-4.219-29.106-4.219-52.31 0-95.815 39.452-103.594 91.015-50.273-1.099-92.406 39.887-92.406 89.985 0 49.629 41.371 90 91 90h315c57.891 0 106-47.109 106-105 0-40.928-24.848-77.549-61.483-94.658z"/><path d="m191.049 473.5c4.156 7.196 13.354 9.617 20.493 5.493l29.458-17.009v35.016c0 8.291 6.709 15 15 15s15-6.709 15-15v-35.016l29.458 17.009c7.152 4.133 16.344 1.69 20.493-5.493 4.146-7.178 1.685-16.348-5.493-20.493l-29.454-17.007 29.454-17.007c7.178-4.146 9.639-13.315 5.493-20.493-4.16-7.192-13.345-9.668-20.493-5.493l-29.458 17.009v-34.016c0-8.291-6.709-15-15-15s-15 6.709-15 15v34.016l-29.458-17.009c-7.192-4.175-16.348-1.699-20.493 5.493-4.146 7.178-1.685 16.348 5.493 20.493l29.454 17.007-29.454 17.007c-7.178 4.145-9.639 13.315-5.493 20.493z"/><path d="m61 466c0 8.291 6.709 15 15 15s15-6.709 15-15v-19.014l16.465 9.507c7.152 4.133 16.344 1.69 20.493-5.493 4.146-7.178 1.685-16.348-5.493-20.493l-16.463-9.507 16.463-9.507c7.178-4.146 9.639-13.315 5.493-20.493-4.175-7.207-13.359-9.639-20.493-5.493l-16.465 9.507v-19.014c0-8.291-6.709-15-15-15s-15 6.709-15 15v19.014l-16.465-9.507c-7.192-4.146-16.362-1.714-20.493 5.493-4.146 7.178-1.685 16.348 5.493 20.493l16.463 9.507-16.463 9.507c-7.178 4.146-9.639 13.315-5.493 20.493 4.156 7.196 13.354 9.617 20.493 5.493l16.465-9.507z"/><path d="m487.958 391c-4.146-7.207-13.359-9.639-20.493-5.493l-16.465 9.507v-19.014c0-8.291-6.709-15-15-15s-15 6.709-15 15v19.014l-16.465-9.507c-7.192-4.146-16.333-1.714-20.493 5.493-4.146 7.178-1.685 16.348 5.493 20.493l16.463 9.507-16.463 9.507c-7.178 4.146-9.639 13.315-5.493 20.493 4.156 7.196 13.354 9.617 20.493 5.493l16.465-9.507v19.014c0 8.291 6.709 15 15 15s15-6.709 15-15v-19.014l16.465 9.507c7.152 4.133 16.344 1.69 20.493-5.493 4.146-7.178 1.685-16.348-5.493-20.493l-16.463-9.507 16.463-9.507c7.178-4.145 9.639-13.315 5.493-20.493z"/></g></svg>